<?xml version="1.0" encoding="UTF-8"?>
<svg id="Layer_6" data-name="Layer 6" xmlns="http://www.w3.org/2000/svg" xmlns:xlink="http://www.w3.org/1999/xlink" viewBox="0 0 32 32">
  <defs>
    <style>
      .cls-1 {
        fill: #83dad6;
      }

      .cls-2 {
        fill: #073e3c;
        fill-rule: evenodd;
      }

      .cls-3 {
        fill: url(#linear-gradient);
      }
    </style>
    <linearGradient id="linear-gradient" x1="2.02" y1="16" x2="29.98" y2="16" gradientUnits="userSpaceOnUse">
      <stop offset="0" stop-color="#298a86"/>
      <stop offset="1" stop-color="#bffffd" stop-opacity=".6"/>
    </linearGradient>
  </defs>
  <circle class="cls-3" cx="16" cy="16" r="13.98"/>
  <path class="cls-2" d="M3.75,16h0c0-6.77,5.49-12.25,12.25-12.25,3.25,0,6.37,1.29,8.66,3.59,2.3,2.3,3.59,5.41,3.59,8.66,0,6.77-5.49,12.25-12.25,12.25S3.75,22.77,3.75,16Z"/>
  <g id="Layer_31" data-name="Layer 31">
    <g id="Layer_51" data-name="Layer 51">
      <g id="Layer_501" data-name="Layer 501">
        <polygon class="cls-1" points="14.41 24.81 10.13 18.99 10.13 9.73 14.41 9.73 14.41 14.97 19.1 9.73 24.12 9.73 18.01 16.52 21.4 20.66 19.85 24.39 15.03 18.78 14.45 19.45 14.41 24.81"/>
      </g>
    </g>
  </g>
</svg>
