<svg width="150" height="150" viewBox="0 0 150 150" fill="none" xmlns="http://www.w3.org/2000/svg">
<g clip-path="url(#clip0_242_1275)">
<g opacity="0.8" filter="url(#filter0_f_242_1275)">
<circle cx="67.2917" cy="81.2917" r="31.7917" fill="#C8F9FD"/>
</g>
<path d="M26.5625 19.3132H132.062C138.562 19.3132 143.812 24.5632 143.812 31.0632V97.1257L91.0625 130.688L38.3125 97.1257V42.7507" fill="url(#paint0_linear_242_1275)"/>
<path d="M38.251 42.7505H14.8135V31.0005C14.8135 24.5005 20.0635 19.2505 26.5635 19.2505C31.3135 19.2505 38.3135 22.938 38.3135 31.0005V42.7505H38.251Z" fill="#298A86"/>
<path d="M38.252 114.875C56.5464 114.875 71.377 100.045 71.377 81.7502C71.377 63.4558 56.5464 48.6252 38.252 48.6252C19.9575 48.6252 5.12695 63.4558 5.12695 81.7502C5.12695 100.045 19.9575 114.875 38.252 114.875Z" fill="url(#paint1_linear_242_1275)"/>
<path d="M54.874 70.7498V92.8123L38.249 98.3748L21.6865 92.8123V70.7498L38.249 65.1873L54.874 70.7498Z" fill="url(#paint2_linear_242_1275)"/>
</g>
<defs>
<filter id="filter0_f_242_1275" x="-4.73518" y="9.26482" width="144.053" height="144.054" filterUnits="userSpaceOnUse" color-interpolation-filters="sRGB">
<feFlood flood-opacity="0" result="BackgroundImageFix"/>
<feBlend mode="normal" in="SourceGraphic" in2="BackgroundImageFix" result="shape"/>
<feGaussianBlur stdDeviation="20.1176" result="effect1_foregroundBlur_242_1275"/>
</filter>
<linearGradient id="paint0_linear_242_1275" x1="85.1875" y1="19.3132" x2="85.1875" y2="130.688" gradientUnits="userSpaceOnUse">
<stop stop-color="#073E3C"/>
<stop offset="1" stop-color="#13A49F"/>
</linearGradient>
<linearGradient id="paint1_linear_242_1275" x1="38.252" y1="48.6252" x2="38.252" y2="114.875" gradientUnits="userSpaceOnUse">
<stop stop-color="#001C1B" stop-opacity="0.4"/>
<stop offset="1" stop-color="#90E7EE"/>
</linearGradient>
<linearGradient id="paint2_linear_242_1275" x1="54.874" y1="81.781" x2="21.6865" y2="81.781" gradientUnits="userSpaceOnUse">
<stop stop-color="#298A86" stop-opacity="0.4"/>
<stop offset="1" stop-color="#90E7EE"/>
</linearGradient>
<clipPath id="clip0_242_1275">
<rect width="150" height="150" fill="white"/>
</clipPath>
</defs>
</svg>
